# xmcd
#
# Track frame offsets:
#	150
#	20485
#	38393
#	55977
#	77665
#	107139
#	124699
#	147384
#	169212
#	188910
#	206251
#	229458
#	250139
#
# Disc length: 3498 seconds
#
# Revision: 1
# Processed by: cddbd v1.4PL0 Copyright (c) Steve Scherf et al.
# Submitted via: EasyCDDAExtractor 6.2.0.3
#
DISCID=ae0da80d
DTITLE=Diego Torres - Un mundo diferente
DYEAR=2001
DGENRE=
TTITLE0=Color esperanza
TTITLE1=Una gotita de amor
TTITLE2=Quisiera
TTITLE3=Por ti yo iré
TTITLE4=Conmigo siempre
TTITLE5=Sueños
TTITLE6=Que no me pierda
TTITLE7=Si tú te vas
TTITLE8=Alegría
TTITLE9=Perdidos en la noche
TTITLE10=No me olvides
TTITLE11=Soy de la gente
TTITLE12=A través del tiempo
EXTD=
EXTT0=
EXTT1=
EXTT2=
EXTT3=
EXTT4=
EXTT5=
EXTT6=
EXTT7=
EXTT8=
EXTT9=
EXTT10=
EXTT11=
EXTT12=
PLAYORDER=
